<?xml version="1.0" encoding="UTF-8"?> <svg xmlns="http://www.w3.org/2000/svg" width="100" height="100" viewBox="0 0 100 100" fill="none"> <path fill-rule="evenodd" clip-rule="evenodd" d="M53.3781 5.48828C34.6601 5.48828 19.4321 20.7173 19.4321 39.4373C19.4321 40.7023 19.5011 41.9693 19.6381 43.2143C17.1731 45.9243 10.0061 54.4863 13.7451 58.6003C14.4971 59.4293 17.7421 61.5823 20.0921 62.4683L20.0761 66.6593C20.0761 75.5303 26.1771 84.9593 37.4341 84.9583L43.6901 85.1653V93.0093C43.6901 93.4071 43.8481 93.7886 44.1294 94.0699C44.4107 94.3513 44.7923 94.5093 45.1901 94.5093C45.5879 94.5093 45.9694 94.3513 46.2508 94.0699C46.5321 93.7886 46.6901 93.4071 46.6901 93.0093V83.7143C46.6901 82.9043 46.0481 82.2413 45.2401 82.2153L37.4841 81.9593C28.0251 81.9593 23.0761 74.2623 23.0761 66.6653L23.0961 61.4143C23.0976 61.0472 22.9645 60.6924 22.722 60.4168C22.4795 60.1413 22.1444 59.9643 21.7801 59.9193C20.8731 59.6053 17.1441 57.8823 15.9661 56.5833C14.9761 55.4943 16.6271 50.7763 22.3021 44.7513C22.6111 44.4233 22.7561 43.9743 22.6981 43.5273C22.5211 42.1708 22.4326 40.8043 22.4331 39.4363C22.4331 22.3713 36.3151 8.48728 53.3791 8.48728C70.4461 8.48728 84.3321 22.3713 84.3321 39.4363C84.3303 43.8206 83.3971 48.1546 81.5942 52.1511C79.7912 56.1476 77.1598 59.7154 73.8741 62.6183C73.7148 62.7588 73.5872 62.9316 73.4998 63.1252C73.4124 63.3189 73.3671 63.5289 73.3671 63.7413L73.3461 92.8343C73.346 93.0313 73.3846 93.2263 73.4599 93.4084C73.5352 93.5904 73.6455 93.7559 73.7847 93.8952C73.9239 94.0346 74.0892 94.1452 74.2711 94.2207C74.4531 94.2962 74.6481 94.3352 74.8451 94.3353C75.2427 94.3353 75.6251 94.1774 75.9064 93.8963C76.1877 93.6152 76.3458 93.2339 76.3461 92.8363L76.3671 64.4103C79.8221 61.2318 82.5804 57.3714 84.4678 53.0728C86.3551 48.7742 87.3304 44.1309 87.3321 39.4363C87.3311 20.7173 72.1001 5.48828 53.3781 5.48828Z" fill="#006E2A"></path> <path fill-rule="evenodd" clip-rule="evenodd" d="M53.4729 20.2402C42.4619 20.2402 33.5029 29.1912 33.5029 40.1932C33.5029 40.5911 33.661 40.9726 33.9423 41.2539C34.2236 41.5352 34.6051 41.6932 35.0029 41.6932C35.4008 41.6932 35.7823 41.5352 36.0636 41.2539C36.3449 40.9726 36.5029 40.5911 36.5029 40.1932C36.5029 30.8452 44.1159 23.2402 53.4729 23.2402C62.8269 23.2402 70.4359 30.8452 70.4359 40.1932C70.4359 45.3192 68.2659 50.1202 64.6309 53.0362C62.4799 54.7632 58.8589 56.5832 53.8319 55.4672C46.1029 53.7462 45.5029 45.9652 45.5029 43.6202C45.5029 38.7482 49.3389 34.7772 54.0799 34.7092C54.1579 34.7222 54.2379 34.7282 54.3179 34.7282C55.6005 34.7296 56.8301 35.2396 57.7371 36.1464C58.6441 37.0532 59.1543 38.2827 59.1559 39.5652C59.1557 40.8489 58.6461 42.08 57.739 42.9884C56.832 43.8968 55.6016 44.4081 54.3179 44.4102C53.9201 44.4102 53.5386 44.5683 53.2573 44.8496C52.976 45.1309 52.8179 45.5124 52.8179 45.9102C52.8179 46.3081 52.976 46.6896 53.2573 46.9709C53.5386 47.2522 53.9201 47.4102 54.3179 47.4102C58.6399 47.4102 62.1559 43.8902 62.1559 39.5652C62.1559 35.2902 58.7139 31.8032 54.4549 31.7292C54.372 31.7153 54.288 31.7082 54.2039 31.7082C47.7519 31.7082 42.5029 37.0522 42.5029 43.6202C42.5029 49.6142 45.3079 56.6422 53.1809 58.3942C54.4039 58.6662 55.6189 58.8002 56.8159 58.8002C60.3449 58.8002 63.6969 57.6312 66.5079 55.3762C70.8459 51.8962 73.4359 46.2202 73.4359 40.1922C73.4359 29.1912 64.4799 20.2402 53.4729 20.2402Z" fill="#006E2A"></path> </svg> 