<?xml version="1.0" encoding="UTF-8"?>
<svg xmlns="http://www.w3.org/2000/svg" xmlns:xlink="http://www.w3.org/1999/xlink" width="72px" height="20px" viewBox="0 0 72 20" version="1.1">
<g id="surface1">
<path style=" stroke:none;fill-rule:nonzero;fill:rgb(12.941176%,12.941176%,12.941176%);fill-opacity:1;" d="M 7.523438 6.851562 L 5.199219 14.011719 L 3.324219 14.011719 L 6.5 5.375 L 7.691406 5.375 Z M 9.453125 14.011719 L 7.125 6.851562 L 6.933594 5.375 L 8.140625 5.375 L 11.332031 14.011719 Z M 9.347656 10.796875 L 9.347656 12.1875 L 4.835938 12.1875 L 4.835938 10.796875 Z M 13.886719 5.375 L 13.886719 14.011719 L 12.125 14.011719 L 12.125 5.375 Z M 19.003906 5.375 L 15.617188 9.640625 L 13.664062 11.761719 L 13.34375 10.078125 L 14.667969 8.25 L 16.84375 5.375 Z M 17.003906 14.011719 L 14.484375 10.019531 L 15.789062 8.914062 L 19.085938 14.011719 Z M 25.503906 12.621094 L 25.503906 14.011719 L 20.953125 14.011719 L 20.953125 12.621094 Z M 21.527344 5.375 L 21.527344 14.011719 L 19.765625 14.011719 L 19.765625 5.375 Z M 24.910156 8.890625 L 24.910156 10.242188 L 20.953125 10.242188 L 20.953125 8.890625 Z M 25.496094 5.375 L 25.496094 6.765625 L 20.953125 6.765625 L 20.953125 5.375 Z M 30.980469 11.75 C 30.980469 11.597656 30.957031 11.457031 30.910156 11.335938 C 30.863281 11.207031 30.785156 11.09375 30.664062 10.992188 C 30.539062 10.882812 30.371094 10.78125 30.152344 10.675781 C 29.933594 10.574219 29.648438 10.46875 29.300781 10.355469 C 28.914062 10.230469 28.546875 10.085938 28.195312 9.929688 C 27.851562 9.773438 27.546875 9.585938 27.28125 9.378906 C 27.019531 9.164062 26.8125 8.917969 26.660156 8.636719 C 26.511719 8.355469 26.4375 8.03125 26.4375 7.65625 C 26.4375 7.296875 26.511719 6.972656 26.671875 6.679688 C 26.828125 6.382812 27.046875 6.128906 27.328125 5.917969 C 27.609375 5.707031 27.941406 5.542969 28.328125 5.425781 C 28.714844 5.3125 29.140625 5.253906 29.601562 5.253906 C 30.230469 5.253906 30.78125 5.371094 31.25 5.601562 C 31.71875 5.828125 32.082031 6.140625 32.339844 6.542969 C 32.605469 6.941406 32.734375 7.398438 32.734375 7.914062 L 30.984375 7.914062 C 30.984375 7.660156 30.933594 7.4375 30.828125 7.25 C 30.726562 7.054688 30.570312 6.902344 30.355469 6.792969 C 30.148438 6.679688 29.886719 6.625 29.570312 6.625 C 29.265625 6.625 29.011719 6.671875 28.808594 6.765625 C 28.605469 6.859375 28.449219 6.984375 28.347656 7.140625 C 28.246094 7.296875 28.195312 7.46875 28.195312 7.664062 C 28.195312 7.808594 28.230469 7.941406 28.300781 8.0625 C 28.375 8.179688 28.488281 8.289062 28.632812 8.394531 C 28.777344 8.496094 28.953125 8.59375 29.164062 8.683594 C 29.375 8.773438 29.621094 8.863281 29.898438 8.949219 C 30.363281 9.09375 30.773438 9.253906 31.125 9.429688 C 31.484375 9.609375 31.78125 9.808594 32.019531 10.03125 C 32.257812 10.25 32.4375 10.503906 32.558594 10.785156 C 32.679688 11.0625 32.738281 11.382812 32.738281 11.738281 C 32.738281 12.113281 32.667969 12.453125 32.523438 12.746094 C 32.378906 13.042969 32.167969 13.292969 31.894531 13.5 C 31.621094 13.707031 31.292969 13.863281 30.914062 13.96875 C 30.535156 14.074219 30.109375 14.128906 29.640625 14.128906 C 29.21875 14.128906 28.800781 14.074219 28.390625 13.960938 C 27.980469 13.847656 27.605469 13.675781 27.269531 13.445312 C 26.9375 13.21875 26.671875 12.925781 26.472656 12.570312 C 26.269531 12.214844 26.171875 11.792969 26.171875 11.304688 L 27.9375 11.304688 C 27.9375 11.574219 27.980469 11.800781 28.0625 11.988281 C 28.144531 12.175781 28.257812 12.324219 28.410156 12.4375 C 28.5625 12.554688 28.742188 12.636719 28.949219 12.6875 C 29.160156 12.738281 29.390625 12.765625 29.640625 12.765625 C 29.945312 12.765625 30.195312 12.722656 30.390625 12.632812 C 30.59375 12.546875 30.738281 12.425781 30.832031 12.273438 C 30.929688 12.117188 30.980469 11.945312 30.980469 11.75 Z M 40.957031 9.492188 L 40.957031 9.898438 C 40.957031 10.554688 40.871094 11.144531 40.695312 11.667969 C 40.519531 12.1875 40.269531 12.632812 39.949219 13.003906 C 39.628906 13.367188 39.242188 13.644531 38.796875 13.839844 C 38.355469 14.03125 37.863281 14.128906 37.324219 14.128906 C 36.789062 14.128906 36.296875 14.03125 35.851562 13.839844 C 35.410156 13.644531 35.023438 13.367188 34.699219 13.003906 C 34.375 12.632812 34.125 12.1875 33.945312 11.667969 C 33.769531 11.144531 33.679688 10.554688 33.679688 9.898438 L 33.679688 9.492188 C 33.679688 8.832031 33.769531 8.242188 33.945312 7.722656 C 34.121094 7.199219 34.367188 6.757812 34.691406 6.386719 C 35.015625 6.019531 35.398438 5.738281 35.839844 5.546875 C 36.285156 5.351562 36.777344 5.253906 37.3125 5.253906 C 37.855469 5.253906 38.34375 5.351562 38.785156 5.546875 C 39.234375 5.738281 39.617188 6.019531 39.9375 6.386719 C 40.261719 6.757812 40.511719 7.199219 40.6875 7.722656 C 40.867188 8.242188 40.957031 8.832031 40.957031 9.492188 Z M 39.179688 9.898438 L 39.179688 9.476562 C 39.179688 9.019531 39.140625 8.617188 39.058594 8.269531 C 38.976562 7.921875 38.851562 7.628906 38.691406 7.390625 C 38.53125 7.152344 38.335938 6.976562 38.105469 6.855469 C 37.875 6.734375 37.613281 6.671875 37.3125 6.671875 C 37.015625 6.671875 36.75 6.734375 36.519531 6.855469 C 36.292969 6.976562 36.101562 7.152344 35.941406 7.390625 C 35.785156 7.628906 35.664062 7.921875 35.582031 8.269531 C 35.5 8.617188 35.457031 9.019531 35.457031 9.476562 L 35.457031 9.898438 C 35.457031 10.355469 35.5 10.757812 35.582031 11.109375 C 35.664062 11.457031 35.785156 11.753906 35.945312 11.992188 C 36.105469 12.230469 36.300781 12.410156 36.53125 12.535156 C 36.761719 12.65625 37.027344 12.71875 37.324219 12.71875 C 37.621094 12.71875 37.886719 12.65625 38.117188 12.535156 C 38.347656 12.410156 38.542969 12.230469 38.699219 11.992188 C 38.855469 11.753906 38.976562 11.457031 39.058594 11.109375 C 39.140625 10.757812 39.179688 10.355469 39.179688 9.898438 Z M 39.179688 9.898438 "/>
<path style=" stroke:none;fill-rule:nonzero;fill:rgb(0%,43.137255%,16.470588%);fill-opacity:1;" d="M 43.03125 5.375 L 44.523438 5.375 L 46.71875 11.714844 L 48.914062 5.375 L 50.402344 5.375 L 47.316406 14.011719 L 46.117188 14.011719 Z M 42.226562 5.375 L 43.710938 5.375 L 43.980469 11.554688 L 43.980469 14.011719 L 42.226562 14.011719 Z M 49.722656 5.375 L 51.214844 5.375 L 51.214844 14.011719 L 49.453125 14.011719 L 49.453125 11.554688 Z M 54.4375 7.59375 L 54.4375 14.011719 L 52.742188 14.011719 L 52.742188 7.59375 Z M 52.632812 5.917969 C 52.632812 5.671875 52.71875 5.464844 52.890625 5.304688 C 53.066406 5.140625 53.296875 5.058594 53.585938 5.058594 C 53.871094 5.058594 54.101562 5.140625 54.273438 5.304688 C 54.449219 5.464844 54.535156 5.671875 54.535156 5.917969 C 54.535156 6.167969 54.449219 6.375 54.273438 6.535156 C 54.101562 6.699219 53.871094 6.78125 53.585938 6.78125 C 53.296875 6.78125 53.066406 6.699219 52.890625 6.535156 C 52.71875 6.375 52.632812 6.167969 52.632812 5.917969 Z M 57.488281 8.960938 L 57.488281 14.011719 L 55.796875 14.011719 L 55.796875 7.59375 L 57.382812 7.59375 Z M 57.242188 10.578125 L 56.785156 10.578125 C 56.785156 10.101562 56.84375 9.675781 56.964844 9.296875 C 57.085938 8.910156 57.257812 8.585938 57.476562 8.316406 C 57.695312 8.042969 57.957031 7.835938 58.257812 7.695312 C 58.5625 7.546875 58.902344 7.472656 59.277344 7.472656 C 59.578125 7.472656 59.847656 7.515625 60.09375 7.605469 C 60.34375 7.691406 60.550781 7.828125 60.730469 8.019531 C 60.910156 8.210938 61.046875 8.460938 61.140625 8.773438 C 61.238281 9.085938 61.289062 9.464844 61.289062 9.917969 L 61.289062 14.011719 L 59.585938 14.011719 L 59.585938 9.910156 C 59.585938 9.625 59.546875 9.40625 59.46875 9.246094 C 59.386719 9.089844 59.273438 8.976562 59.121094 8.914062 C 58.972656 8.847656 58.789062 8.816406 58.570312 8.816406 C 58.34375 8.816406 58.144531 8.859375 57.976562 8.949219 C 57.8125 9.042969 57.675781 9.167969 57.566406 9.332031 C 57.460938 9.488281 57.378906 9.675781 57.324219 9.886719 C 57.269531 10.101562 57.242188 10.332031 57.242188 10.578125 Z M 66.324219 12.609375 L 66.324219 4.898438 L 68.027344 4.898438 L 68.027344 14.011719 L 66.492188 14.011719 Z M 62.308594 10.878906 L 62.308594 10.753906 C 62.308594 10.265625 62.363281 9.820312 62.472656 9.417969 C 62.582031 9.015625 62.742188 8.671875 62.953125 8.382812 C 63.164062 8.09375 63.425781 7.867188 63.734375 7.710938 C 64.042969 7.554688 64.394531 7.472656 64.792969 7.472656 C 65.164062 7.472656 65.488281 7.554688 65.765625 7.710938 C 66.046875 7.867188 66.285156 8.09375 66.480469 8.386719 C 66.679688 8.675781 66.839844 9.019531 66.964844 9.414062 C 67.085938 9.804688 67.171875 10.234375 67.226562 10.699219 L 67.226562 10.972656 C 67.171875 11.421875 67.085938 11.835938 66.964844 12.21875 C 66.839844 12.601562 66.679688 12.9375 66.480469 13.226562 C 66.285156 13.511719 66.046875 13.734375 65.765625 13.890625 C 65.484375 14.050781 65.15625 14.128906 64.78125 14.128906 C 64.382812 14.128906 64.03125 14.046875 63.722656 13.886719 C 63.417969 13.722656 63.160156 13.496094 62.949219 13.203125 C 62.742188 12.910156 62.582031 12.566406 62.472656 12.171875 C 62.363281 11.777344 62.308594 11.34375 62.308594 10.878906 Z M 64 10.753906 L 64 10.878906 C 64 11.144531 64.019531 11.390625 64.058594 11.621094 C 64.101562 11.851562 64.167969 12.054688 64.261719 12.230469 C 64.363281 12.40625 64.488281 12.542969 64.636719 12.640625 C 64.796875 12.734375 64.984375 12.78125 65.207031 12.78125 C 65.496094 12.78125 65.734375 12.71875 65.921875 12.585938 C 66.113281 12.453125 66.253906 12.269531 66.351562 12.035156 C 66.453125 11.800781 66.511719 11.53125 66.527344 11.226562 L 66.527344 10.453125 C 66.515625 10.203125 66.480469 9.976562 66.421875 9.78125 C 66.367188 9.578125 66.285156 9.40625 66.175781 9.265625 C 66.070312 9.125 65.9375 9.011719 65.777344 8.933594 C 65.621094 8.855469 65.433594 8.816406 65.21875 8.816406 C 65 8.816406 64.8125 8.867188 64.65625 8.96875 C 64.5 9.066406 64.371094 9.203125 64.273438 9.378906 C 64.179688 9.550781 64.109375 9.757812 64.0625 9.996094 C 64.019531 10.226562 64 10.480469 64 10.753906 Z M 64 10.753906 "/>
</g>
</svg>
