<?xml version="1.0" encoding="UTF-8"?>
<svg xmlns="http://www.w3.org/2000/svg" xmlns:xlink="http://www.w3.org/1999/xlink" width="326px" height="90px" viewBox="0 0 325 90" version="1.1">
<g id="surface1">
<path style=" stroke:none;fill-rule:nonzero;fill:rgb(12.941177%,12.941177%,12.941177%);fill-opacity:1;" d="M 33.558594 30.828125 L 23.035156 63.046875 L 14.558594 63.046875 L 28.933594 24.183594 L 34.332031 24.183594 Z M 42.304688 63.046875 L 31.753906 30.828125 L 30.902344 24.183594 L 36.351562 24.183594 L 50.808594 63.046875 Z M 41.824219 48.578125 L 41.824219 54.851562 L 21.390625 54.851562 L 21.390625 48.578125 Z M 62.371094 24.183594 L 62.371094 63.046875 L 54.398438 63.046875 L 54.398438 24.183594 Z M 85.550781 24.183594 L 70.210938 43.378906 L 61.359375 52.929688 L 59.925781 45.351562 L 65.90625 37.128906 L 75.769531 24.183594 Z M 76.488281 63.046875 L 65.082031 45.082031 L 70.984375 40.117188 L 85.921875 63.046875 Z M 114.96875 56.800781 L 114.96875 63.046875 L 94.375 63.046875 L 94.375 56.800781 Z M 96.976562 24.183594 L 96.976562 63.046875 L 89 63.046875 L 89 24.183594 Z M 112.285156 40.011719 L 112.285156 46.097656 L 94.375 46.097656 L 94.375 40.011719 Z M 114.945312 24.183594 L 114.945312 30.453125 L 94.375 30.453125 L 94.375 24.183594 Z M 139.769531 52.878906 C 139.769531 52.183594 139.664062 51.558594 139.449219 51.007812 C 139.25 50.4375 138.882812 49.925781 138.335938 49.460938 C 137.78125 48.980469 137.015625 48.511719 136.019531 48.046875 C 135.027344 47.582031 133.746094 47.105469 132.164062 46.605469 C 130.414062 46.035156 128.75 45.394531 127.167969 44.683594 C 125.609375 43.972656 124.230469 43.144531 123.027344 42.203125 C 121.835938 41.238281 120.898438 40.125 120.203125 38.863281 C 119.535156 37.601562 119.199219 36.132812 119.199219 34.457031 C 119.199219 32.835938 119.546875 31.371094 120.257812 30.058594 C 120.96875 28.722656 121.960938 27.582031 123.234375 26.636719 C 124.511719 25.679688 126.019531 24.941406 127.757812 24.421875 C 129.511719 23.90625 131.433594 23.648438 133.523438 23.648438 C 136.375 23.648438 138.863281 24.164062 140.992188 25.199219 C 143.117188 26.230469 144.765625 27.640625 145.933594 29.441406 C 147.125 31.238281 147.714844 33.296875 147.714844 35.605469 L 139.792969 35.605469 C 139.792969 34.472656 139.554688 33.472656 139.078125 32.617188 C 138.617188 31.742188 137.910156 31.0625 136.949219 30.5625 C 136.011719 30.0625 134.824219 29.816406 133.386719 29.816406 C 132.007812 29.816406 130.855469 30.027344 129.933594 30.453125 C 129.015625 30.867188 128.320312 31.425781 127.859375 32.132812 C 127.398438 32.832031 127.167969 33.613281 127.167969 34.484375 C 127.167969 35.144531 127.328125 35.742188 127.648438 36.273438 C 127.984375 36.808594 128.480469 37.308594 129.136719 37.769531 C 129.792969 38.230469 130.601562 38.667969 131.554688 39.078125 C 132.511719 39.484375 133.621094 39.886719 134.878906 40.277344 C 136.984375 40.917969 138.835938 41.636719 140.433594 42.441406 C 142.046875 43.242188 143.390625 44.140625 144.472656 45.136719 C 145.550781 46.132812 146.371094 47.261719 146.917969 48.527344 C 147.46875 49.789062 147.738281 51.222656 147.738281 52.824219 C 147.738281 54.515625 147.414062 56.03125 146.757812 57.363281 C 146.101562 58.695312 145.15625 59.824219 143.910156 60.75 C 142.675781 61.679688 141.195312 62.382812 139.476562 62.859375 C 137.757812 63.339844 135.835938 63.582031 133.707031 63.582031 C 131.792969 63.582031 129.90625 63.332031 128.046875 62.832031 C 126.183594 62.320312 124.492188 61.542969 122.972656 60.511719 C 121.464844 59.480469 120.257812 58.164062 119.355469 56.5625 C 118.449219 54.960938 118 53.066406 118 50.878906 L 126 50.878906 C 126 52.089844 126.183594 53.109375 126.554688 53.945312 C 126.933594 54.785156 127.453125 55.457031 128.128906 55.972656 C 128.816406 56.488281 129.632812 56.863281 130.570312 57.09375 C 131.527344 57.324219 132.578125 57.441406 133.707031 57.441406 C 135.089844 57.441406 136.222656 57.246094 137.109375 56.855469 C 138.015625 56.464844 138.679688 55.917969 139.101562 55.226562 C 139.550781 54.53125 139.769531 53.75 139.769531 52.878906 Z M 184.953125 42.707031 L 184.953125 44.550781 C 184.953125 47.503906 184.554688 50.15625 183.753906 52.503906 C 182.957031 54.851562 181.832031 56.855469 180.378906 58.511719 C 178.929688 60.144531 177.1875 61.402344 175.171875 62.277344 C 173.167969 63.144531 170.945312 63.582031 168.5 63.582031 C 166.074219 63.582031 163.84375 63.144531 161.832031 62.277344 C 159.828125 61.402344 158.085938 60.144531 156.617188 58.511719 C 155.148438 56.855469 154.003906 54.851562 153.191406 52.503906 C 152.394531 50.15625 151.992188 47.503906 151.992188 44.550781 L 151.992188 42.707031 C 151.992188 39.738281 152.394531 37.085938 153.191406 34.753906 C 153.988281 32.402344 155.113281 30.402344 156.566406 28.746094 C 158.039062 27.089844 159.773438 25.828125 161.777344 24.953125 C 163.792969 24.082031 166.019531 23.648438 168.445312 23.648438 C 170.894531 23.648438 173.113281 24.082031 175.117188 24.953125 C 177.136719 25.828125 178.875 27.089844 180.328125 28.746094 C 181.796875 30.402344 182.933594 32.402344 183.730469 34.753906 C 184.542969 37.085938 184.953125 39.738281 184.953125 42.707031 Z M 176.898438 44.550781 L 176.898438 42.652344 C 176.898438 40.589844 176.714844 38.773438 176.339844 37.207031 C 175.96875 35.644531 175.417969 34.324219 174.691406 33.257812 C 173.964844 32.191406 173.082031 31.386719 172.03125 30.855469 C 170.988281 30.300781 169.796875 30.027344 168.445312 30.027344 C 167.101562 30.027344 165.902344 30.300781 164.859375 30.855469 C 163.832031 31.386719 162.953125 32.191406 162.226562 33.257812 C 161.519531 34.324219 160.976562 35.644531 160.605469 37.207031 C 160.234375 38.773438 160.046875 40.589844 160.046875 42.652344 L 160.046875 44.550781 C 160.046875 46.59375 160.234375 48.414062 160.605469 49.992188 C 160.976562 51.558594 161.527344 52.886719 162.253906 53.972656 C 162.980469 55.039062 163.867188 55.847656 164.910156 56.402344 C 165.957031 56.953125 167.152344 57.230469 168.5 57.230469 C 169.847656 57.230469 171.042969 56.953125 172.085938 56.402344 C 173.132812 55.847656 174.007812 55.039062 174.71875 53.972656 C 175.425781 52.886719 175.96875 51.558594 176.339844 49.992188 C 176.714844 48.414062 176.898438 46.59375 176.898438 44.550781 Z M 176.898438 44.550781 "/>
<path style=" stroke:none;fill-rule:nonzero;fill:rgb(0%,43.137255%,16.470589%);fill-opacity:1;" d="M 194.335938 24.183594 L 201.085938 24.183594 L 211.027344 52.714844 L 220.964844 24.183594 L 227.714844 24.183594 L 213.734375 63.046875 L 208.3125 63.046875 Z M 190.691406 24.183594 L 197.417969 24.183594 L 198.636719 51.996094 L 198.636719 63.046875 L 190.691406 63.046875 Z M 224.632812 24.183594 L 231.382812 24.183594 L 231.382812 63.046875 L 223.410156 63.046875 L 223.410156 51.996094 Z M 245.976562 34.164062 L 245.976562 63.046875 L 238.296875 63.046875 L 238.296875 34.164062 Z M 237.816406 26.636719 C 237.816406 25.519531 238.203125 24.589844 238.984375 23.863281 C 239.765625 23.136719 240.8125 22.769531 242.121094 22.769531 C 243.417969 22.769531 244.453125 23.136719 245.230469 23.863281 C 246.03125 24.589844 246.425781 25.519531 246.425781 26.636719 C 246.425781 27.757812 246.03125 28.683594 245.230469 29.414062 C 244.453125 30.144531 243.417969 30.507812 242.121094 30.507812 C 240.8125 30.507812 239.765625 30.144531 238.984375 29.414062 C 238.203125 28.683594 237.816406 27.757812 237.816406 26.636719 Z M 259.796875 40.332031 L 259.796875 63.046875 L 252.144531 63.046875 L 252.144531 34.164062 L 259.320312 34.164062 Z M 258.679688 47.59375 L 256.605469 47.59375 C 256.605469 45.457031 256.882812 43.535156 257.429688 41.828125 C 257.980469 40.101562 258.75 38.632812 259.742188 37.421875 C 260.738281 36.195312 261.914062 35.257812 263.28125 34.621094 C 264.660156 33.960938 266.203125 33.632812 267.902344 33.632812 C 269.25 33.632812 270.484375 33.828125 271.59375 34.21875 C 272.714844 34.609375 273.667969 35.234375 274.46875 36.089844 C 275.285156 36.941406 275.90625 38.070312 276.328125 39.476562 C 276.773438 40.882812 276.996094 42.597656 276.996094 44.628906 L 276.996094 63.046875 L 269.285156 63.046875 L 269.285156 44.601562 C 269.285156 43.320312 269.109375 42.324219 268.753906 41.613281 C 268.398438 40.902344 267.875 40.402344 267.1875 40.117188 C 266.511719 39.820312 265.679688 39.667969 264.6875 39.667969 C 263.660156 39.667969 262.761719 39.867188 262.003906 40.277344 C 261.257812 40.6875 260.640625 41.257812 260.140625 41.988281 C 259.664062 42.699219 259.300781 43.535156 259.050781 44.496094 C 258.804688 45.457031 258.679688 46.488281 258.679688 47.59375 Z M 299.796875 56.746094 L 299.796875 22.050781 L 307.507812 22.050781 L 307.507812 63.046875 L 300.570312 63.046875 Z M 281.621094 48.957031 L 281.621094 48.390625 C 281.621094 46.191406 281.863281 44.1875 282.359375 42.386719 C 282.859375 40.570312 283.585938 39.015625 284.542969 37.714844 C 285.496094 36.417969 286.671875 35.410156 288.074219 34.703125 C 289.472656 33.988281 291.070312 33.632812 292.863281 33.632812 C 294.542969 33.632812 296.015625 33.988281 297.273438 34.703125 C 298.546875 35.410156 299.628906 36.425781 300.511719 37.742188 C 301.417969 39.042969 302.144531 40.582031 302.695312 42.363281 C 303.246094 44.121094 303.640625 46.050781 303.890625 48.152344 L 303.890625 49.382812 C 303.640625 51.390625 303.246094 53.261719 302.695312 54.988281 C 302.144531 56.714844 301.417969 58.226562 300.511719 59.523438 C 299.628906 60.804688 298.546875 61.804688 297.273438 62.515625 C 295.992188 63.222656 294.511719 63.582031 292.808594 63.582031 C 291.019531 63.582031 289.421875 63.21875 288.023438 62.488281 C 286.640625 61.757812 285.472656 60.734375 284.515625 59.417969 C 283.574219 58.101562 282.859375 56.550781 282.359375 54.773438 C 281.863281 52.992188 281.621094 51.054688 281.621094 48.957031 Z M 289.273438 48.390625 L 289.273438 48.957031 C 289.273438 50.144531 289.359375 51.261719 289.539062 52.289062 C 289.734375 53.324219 290.039062 54.238281 290.46875 55.039062 C 290.914062 55.824219 291.480469 56.4375 292.167969 56.882812 C 292.878906 57.3125 293.738281 57.523438 294.746094 57.523438 C 296.058594 57.523438 297.136719 57.230469 297.988281 56.640625 C 298.839844 56.035156 299.484375 55.210938 299.929688 54.160156 C 300.390625 53.109375 300.65625 51.898438 300.726562 50.527344 L 300.726562 47.03125 C 300.675781 45.914062 300.511719 44.902344 300.246094 44.015625 C 300.003906 43.105469 299.628906 42.332031 299.132812 41.695312 C 298.652344 41.054688 298.050781 40.554688 297.324219 40.199219 C 296.613281 39.84375 295.773438 39.667969 294.800781 39.667969 C 293.808594 39.667969 292.957031 39.898438 292.25 40.359375 C 291.539062 40.800781 290.964844 41.417969 290.523438 42.203125 C 290.09375 42.984375 289.777344 43.910156 289.566406 44.976562 C 289.367188 46.027344 289.273438 47.167969 289.273438 48.390625 Z M 289.273438 48.390625 "/>
</g>
</svg>
