<?xml version="1.0" encoding="UTF-8"?>
<svg xmlns="http://www.w3.org/2000/svg" xmlns:xlink="http://www.w3.org/1999/xlink" width="36px" height="10px" viewBox="0 0 36 10" version="1.1">
<g id="surface1">
<path style=" stroke:none;fill-rule:nonzero;fill:rgb(12.941176%,12.941176%,12.941176%);fill-opacity:1;" d="M 3.699219 3.425781 L 2.53125 7.003906 L 1.589844 7.003906 L 3.183594 2.6875 L 3.78125 2.6875 Z M 4.667969 7.003906 L 3.496094 3.425781 L 3.402344 2.6875 L 4.007812 2.6875 L 5.609375 7.003906 Z M 4.613281 5.398438 L 4.613281 6.09375 L 2.347656 6.09375 L 2.347656 5.398438 Z M 6.894531 2.6875 L 6.894531 7.003906 L 6.007812 7.003906 L 6.007812 2.6875 Z M 9.464844 2.6875 L 7.761719 4.820312 L 6.78125 5.882812 L 6.621094 5.039062 L 7.285156 4.125 L 8.378906 2.6875 Z M 8.457031 7.003906 L 7.195312 5.007812 L 7.847656 4.457031 L 9.503906 7.003906 Z M 12.726562 6.3125 L 12.726562 7.003906 L 10.441406 7.003906 L 10.441406 6.3125 Z M 10.730469 2.6875 L 10.730469 7.003906 L 9.847656 7.003906 L 9.847656 2.6875 Z M 12.429688 4.445312 L 12.429688 5.121094 L 10.441406 5.121094 L 10.441406 4.445312 Z M 12.726562 2.6875 L 12.726562 3.382812 L 10.441406 3.382812 L 10.441406 2.6875 Z M 15.476562 5.875 C 15.476562 5.796875 15.464844 5.730469 15.441406 5.667969 C 15.421875 5.605469 15.378906 5.546875 15.320312 5.496094 C 15.257812 5.441406 15.171875 5.390625 15.0625 5.339844 C 14.953125 5.285156 14.808594 5.234375 14.636719 5.179688 C 14.441406 5.113281 14.257812 5.042969 14.082031 4.964844 C 13.90625 4.886719 13.753906 4.792969 13.621094 4.6875 C 13.488281 4.582031 13.386719 4.457031 13.308594 4.316406 C 13.234375 4.179688 13.195312 4.015625 13.195312 3.828125 C 13.195312 3.648438 13.234375 3.484375 13.3125 3.339844 C 13.394531 3.191406 13.503906 3.066406 13.644531 2.960938 C 13.785156 2.851562 13.953125 2.769531 14.144531 2.714844 C 14.339844 2.65625 14.554688 2.628906 14.785156 2.628906 C 15.101562 2.628906 15.378906 2.683594 15.613281 2.800781 C 15.851562 2.914062 16.03125 3.070312 16.164062 3.269531 C 16.292969 3.472656 16.359375 3.699219 16.359375 3.957031 L 15.480469 3.957031 C 15.480469 3.828125 15.453125 3.71875 15.402344 3.625 C 15.351562 3.527344 15.273438 3.449219 15.167969 3.394531 C 15.0625 3.339844 14.929688 3.3125 14.769531 3.3125 C 14.617188 3.3125 14.488281 3.335938 14.386719 3.382812 C 14.285156 3.429688 14.207031 3.492188 14.15625 3.570312 C 14.105469 3.648438 14.082031 3.734375 14.082031 3.832031 C 14.082031 3.90625 14.097656 3.972656 14.132812 4.03125 C 14.171875 4.089844 14.226562 4.144531 14.300781 4.195312 C 14.371094 4.25 14.460938 4.296875 14.566406 4.34375 C 14.671875 4.386719 14.796875 4.433594 14.9375 4.476562 C 15.167969 4.546875 15.375 4.625 15.550781 4.714844 C 15.730469 4.804688 15.878906 4.90625 16 5.015625 C 16.121094 5.125 16.210938 5.25 16.273438 5.390625 C 16.332031 5.53125 16.363281 5.691406 16.363281 5.871094 C 16.363281 6.058594 16.328125 6.226562 16.253906 6.375 C 16.179688 6.523438 16.074219 6.648438 15.9375 6.75 C 15.800781 6.851562 15.636719 6.929688 15.445312 6.984375 C 15.253906 7.039062 15.042969 7.066406 14.804688 7.066406 C 14.59375 7.066406 14.382812 7.035156 14.179688 6.980469 C 13.972656 6.925781 13.785156 6.839844 13.617188 6.722656 C 13.449219 6.609375 13.3125 6.460938 13.214844 6.285156 C 13.113281 6.105469 13.0625 5.894531 13.0625 5.652344 L 13.953125 5.652344 C 13.953125 5.789062 13.972656 5.902344 14.011719 5.992188 C 14.054688 6.085938 14.113281 6.164062 14.1875 6.21875 C 14.265625 6.277344 14.355469 6.320312 14.457031 6.34375 C 14.5625 6.371094 14.679688 6.382812 14.804688 6.382812 C 14.960938 6.382812 15.085938 6.359375 15.183594 6.316406 C 15.285156 6.273438 15.359375 6.214844 15.40625 6.136719 C 15.453125 6.058594 15.476562 5.972656 15.476562 5.875 Z M 20.492188 4.746094 L 20.492188 4.949219 C 20.492188 5.277344 20.445312 5.574219 20.359375 5.832031 C 20.269531 6.09375 20.144531 6.316406 19.984375 6.5 C 19.820312 6.683594 19.628906 6.824219 19.40625 6.917969 C 19.183594 7.015625 18.9375 7.066406 18.664062 7.066406 C 18.394531 7.066406 18.148438 7.015625 17.925781 6.917969 C 17.703125 6.824219 17.511719 6.683594 17.347656 6.5 C 17.183594 6.316406 17.058594 6.09375 16.96875 5.832031 C 16.878906 5.574219 16.835938 5.277344 16.835938 4.949219 L 16.835938 4.746094 C 16.835938 4.414062 16.878906 4.121094 16.96875 3.863281 C 17.054688 3.601562 17.179688 3.378906 17.339844 3.195312 C 17.503906 3.011719 17.699219 2.871094 17.917969 2.773438 C 18.144531 2.675781 18.390625 2.628906 18.660156 2.628906 C 18.929688 2.628906 19.175781 2.675781 19.398438 2.773438 C 19.625 2.871094 19.816406 3.011719 19.976562 3.195312 C 20.140625 3.378906 20.265625 3.601562 20.355469 3.863281 C 20.445312 4.121094 20.492188 4.414062 20.492188 4.746094 Z M 19.597656 4.949219 L 19.597656 4.738281 C 19.597656 4.511719 19.578125 4.308594 19.535156 4.132812 C 19.492188 3.960938 19.433594 3.8125 19.351562 3.695312 C 19.273438 3.578125 19.171875 3.488281 19.058594 3.429688 C 18.941406 3.367188 18.808594 3.335938 18.660156 3.335938 C 18.511719 3.335938 18.378906 3.367188 18.261719 3.429688 C 18.148438 3.488281 18.050781 3.578125 17.96875 3.695312 C 17.890625 3.8125 17.832031 3.960938 17.789062 4.132812 C 17.75 4.308594 17.726562 4.511719 17.726562 4.738281 L 17.726562 4.949219 C 17.726562 5.175781 17.75 5.378906 17.789062 5.554688 C 17.832031 5.730469 17.890625 5.875 17.972656 5.996094 C 18.054688 6.117188 18.152344 6.207031 18.265625 6.265625 C 18.382812 6.328125 18.515625 6.359375 18.664062 6.359375 C 18.816406 6.359375 18.949219 6.328125 19.0625 6.265625 C 19.179688 6.207031 19.277344 6.117188 19.355469 5.996094 C 19.433594 5.875 19.492188 5.730469 19.535156 5.554688 C 19.578125 5.378906 19.597656 5.175781 19.597656 4.949219 Z M 19.597656 4.949219 "/>
<path style=" stroke:none;fill-rule:nonzero;fill:rgb(0%,43.137255%,16.470588%);fill-opacity:1;" d="M 21.53125 2.6875 L 22.28125 2.6875 L 23.382812 5.859375 L 24.484375 2.6875 L 25.234375 2.6875 L 23.683594 7.003906 L 23.082031 7.003906 Z M 21.128906 2.6875 L 21.875 2.6875 L 22.007812 5.777344 L 22.007812 7.003906 L 21.128906 7.003906 Z M 24.890625 2.6875 L 25.640625 2.6875 L 25.640625 7.003906 L 24.757812 7.003906 L 24.757812 5.777344 Z M 27.257812 3.796875 L 27.257812 7.003906 L 26.40625 7.003906 L 26.40625 3.796875 Z M 26.355469 2.960938 C 26.355469 2.835938 26.398438 2.734375 26.484375 2.652344 C 26.570312 2.570312 26.6875 2.53125 26.832031 2.53125 C 26.976562 2.53125 27.089844 2.570312 27.175781 2.652344 C 27.265625 2.734375 27.308594 2.835938 27.308594 2.960938 C 27.308594 3.085938 27.265625 3.1875 27.175781 3.269531 C 27.089844 3.347656 26.976562 3.390625 26.832031 3.390625 C 26.6875 3.390625 26.570312 3.347656 26.484375 3.269531 C 26.398438 3.1875 26.355469 3.085938 26.355469 2.960938 Z M 28.792969 4.480469 L 28.792969 7.003906 L 27.945312 7.003906 L 27.945312 3.796875 L 28.738281 3.796875 Z M 28.667969 5.289062 L 28.4375 5.289062 C 28.4375 5.050781 28.46875 4.835938 28.53125 4.648438 C 28.589844 4.457031 28.675781 4.292969 28.785156 4.15625 C 28.898438 4.023438 29.027344 3.917969 29.179688 3.847656 C 29.332031 3.773438 29.503906 3.738281 29.691406 3.738281 C 29.839844 3.738281 29.976562 3.757812 30.101562 3.800781 C 30.226562 3.84375 30.332031 3.914062 30.421875 4.011719 C 30.511719 4.105469 30.578125 4.230469 30.625 4.386719 C 30.675781 4.542969 30.699219 4.734375 30.699219 4.957031 L 30.699219 7.003906 L 29.84375 7.003906 L 29.84375 4.957031 C 29.84375 4.8125 29.824219 4.703125 29.785156 4.625 C 29.746094 4.542969 29.6875 4.488281 29.613281 4.457031 C 29.539062 4.425781 29.445312 4.40625 29.335938 4.40625 C 29.222656 4.40625 29.121094 4.429688 29.039062 4.476562 C 28.953125 4.519531 28.886719 4.585938 28.832031 4.664062 C 28.777344 4.746094 28.738281 4.835938 28.710938 4.945312 C 28.683594 5.050781 28.667969 5.164062 28.667969 5.289062 Z M 33.230469 6.304688 L 33.230469 2.449219 L 34.085938 2.449219 L 34.085938 7.003906 L 33.316406 7.003906 Z M 31.214844 5.4375 L 31.214844 5.378906 C 31.214844 5.132812 31.242188 4.910156 31.296875 4.710938 C 31.351562 4.507812 31.429688 4.335938 31.539062 4.191406 C 31.644531 4.046875 31.773438 3.933594 31.929688 3.855469 C 32.085938 3.777344 32.261719 3.738281 32.460938 3.738281 C 32.648438 3.738281 32.808594 3.777344 32.949219 3.855469 C 33.089844 3.933594 33.210938 4.046875 33.308594 4.195312 C 33.410156 4.339844 33.488281 4.507812 33.550781 4.707031 C 33.613281 4.902344 33.65625 5.117188 33.683594 5.351562 L 33.683594 5.488281 C 33.65625 5.710938 33.613281 5.917969 33.550781 6.109375 C 33.488281 6.300781 33.410156 6.46875 33.308594 6.613281 C 33.210938 6.757812 33.089844 6.867188 32.949219 6.945312 C 32.808594 7.023438 32.644531 7.066406 32.453125 7.066406 C 32.253906 7.066406 32.078125 7.023438 31.921875 6.941406 C 31.769531 6.863281 31.640625 6.75 31.535156 6.601562 C 31.429688 6.457031 31.351562 6.285156 31.296875 6.085938 C 31.242188 5.886719 31.214844 5.671875 31.214844 5.4375 Z M 32.0625 5.378906 L 32.0625 5.4375 C 32.0625 5.570312 32.070312 5.695312 32.089844 5.808594 C 32.113281 5.925781 32.148438 6.027344 32.195312 6.117188 C 32.242188 6.203125 32.308594 6.269531 32.382812 6.320312 C 32.460938 6.367188 32.558594 6.390625 32.667969 6.390625 C 32.816406 6.390625 32.933594 6.359375 33.027344 6.292969 C 33.125 6.226562 33.195312 6.132812 33.246094 6.019531 C 33.296875 5.902344 33.324219 5.765625 33.332031 5.613281 L 33.332031 5.226562 C 33.328125 5.101562 33.308594 4.988281 33.28125 4.890625 C 33.253906 4.789062 33.210938 4.703125 33.15625 4.632812 C 33.101562 4.5625 33.035156 4.507812 32.957031 4.464844 C 32.875 4.425781 32.785156 4.40625 32.675781 4.40625 C 32.566406 4.40625 32.472656 4.433594 32.390625 4.484375 C 32.3125 4.535156 32.25 4.601562 32.199219 4.6875 C 32.152344 4.777344 32.117188 4.878906 32.09375 4.996094 C 32.074219 5.113281 32.0625 5.242188 32.0625 5.378906 Z M 32.0625 5.378906 "/>
</g>
</svg>
