<?xml version="1.0" encoding="UTF-8"?>
<svg xmlns="http://www.w3.org/2000/svg" xmlns:xlink="http://www.w3.org/1999/xlink" width="478px" height="132px" viewBox="0 0 478 132" version="1.1">
<g id="surface1">
<path style=" stroke:none;fill-rule:nonzero;fill:rgb(12.941176%,12.941176%,12.941176%);fill-opacity:1;" d="M 49.09375 45.214844 L 33.59375 92.46875 L 21.105469 92.46875 L 42.285156 35.46875 L 50.230469 35.46875 Z M 61.972656 92.46875 L 46.433594 45.214844 L 45.179688 35.46875 L 53.203125 35.46875 L 74.5 92.46875 Z M 61.269531 71.25 L 61.269531 80.449219 L 31.167969 80.449219 L 31.167969 71.25 Z M 91.527344 35.46875 L 91.527344 92.46875 L 79.785156 92.46875 L 79.785156 35.46875 Z M 125.664062 35.46875 L 103.074219 63.617188 L 90.039062 77.632812 L 87.925781 66.515625 L 96.734375 54.457031 L 111.257812 35.46875 Z M 112.316406 92.46875 L 95.519531 66.121094 L 104.210938 58.839844 L 126.210938 92.46875 Z M 168.996094 83.308594 L 168.996094 92.46875 L 138.660156 92.46875 L 138.660156 83.308594 Z M 142.496094 35.46875 L 142.496094 92.46875 L 130.75 92.46875 L 130.75 35.46875 Z M 165.042969 58.683594 L 165.042969 67.609375 L 138.660156 67.609375 L 138.660156 58.683594 Z M 168.957031 35.46875 L 168.957031 44.667969 L 138.660156 44.667969 L 138.660156 35.46875 Z M 205.519531 77.554688 C 205.519531 76.535156 205.363281 75.621094 205.050781 74.8125 C 204.761719 73.976562 204.214844 73.222656 203.40625 72.542969 C 202.597656 71.839844 201.460938 71.148438 200 70.46875 C 198.539062 69.789062 196.648438 69.085938 194.324219 68.355469 C 191.742188 67.519531 189.289062 66.578125 186.964844 65.535156 C 184.667969 64.492188 182.632812 63.277344 180.859375 61.894531 C 179.109375 60.484375 177.726562 58.851562 176.707031 57 C 175.71875 55.148438 175.222656 52.992188 175.222656 50.539062 C 175.222656 48.164062 175.742188 46.011719 176.785156 44.082031 C 177.832031 42.125 179.292969 40.453125 181.171875 39.070312 C 183.050781 37.660156 185.269531 36.578125 187.828125 35.820312 C 190.410156 35.0625 193.242188 34.683594 196.320312 34.683594 C 200.523438 34.683594 204.1875 35.441406 207.320312 36.957031 C 210.453125 38.46875 212.878906 40.542969 214.601562 43.179688 C 216.351562 45.816406 217.222656 48.832031 217.222656 52.222656 L 205.558594 52.222656 C 205.558594 50.554688 205.207031 49.09375 204.503906 47.839844 C 203.824219 46.558594 202.78125 45.554688 201.371094 44.824219 C 199.988281 44.09375 198.238281 43.730469 196.125 43.730469 C 194.089844 43.730469 192.394531 44.042969 191.035156 44.667969 C 189.679688 45.269531 188.660156 46.089844 187.980469 47.132812 C 187.304688 48.152344 186.964844 49.300781 186.964844 50.578125 C 186.964844 51.546875 187.199219 52.421875 187.667969 53.203125 C 188.164062 53.984375 188.894531 54.71875 189.863281 55.394531 C 190.828125 56.074219 192.015625 56.714844 193.421875 57.3125 C 194.832031 57.914062 196.464844 58.5 198.316406 59.074219 C 201.421875 60.015625 204.148438 61.070312 206.5 62.246094 C 208.875 63.421875 210.855469 64.738281 212.449219 66.199219 C 214.039062 67.664062 215.242188 69.320312 216.050781 71.171875 C 216.859375 73.027344 217.261719 75.125 217.261719 77.476562 C 217.261719 79.957031 216.78125 82.175781 215.816406 84.132812 C 214.847656 86.089844 213.453125 87.746094 211.625 89.101562 C 209.800781 90.460938 207.621094 91.492188 205.089844 92.195312 C 202.558594 92.902344 199.726562 93.253906 196.59375 93.253906 C 193.777344 93.253906 190.996094 92.886719 188.257812 92.15625 C 185.515625 91.398438 183.023438 90.265625 180.78125 88.75 C 178.5625 87.238281 176.785156 85.304688 175.457031 82.957031 C 174.125 80.609375 173.460938 77.828125 173.460938 74.617188 L 185.242188 74.617188 C 185.242188 76.394531 185.515625 77.894531 186.0625 79.121094 C 186.613281 80.347656 187.382812 81.339844 188.375 82.09375 C 189.390625 82.851562 190.59375 83.402344 191.976562 83.738281 C 193.382812 84.078125 194.925781 84.25 196.59375 84.25 C 198.628906 84.25 200.300781 83.960938 201.605469 83.386719 C 202.9375 82.8125 203.914062 82.015625 204.542969 81 C 205.195312 79.980469 205.519531 78.832031 205.519531 77.554688 Z M 272.066406 62.636719 L 272.066406 65.339844 C 272.066406 69.671875 271.480469 73.5625 270.304688 77.007812 C 269.132812 80.449219 267.472656 83.386719 265.332031 85.816406 C 263.195312 88.214844 260.636719 90.054688 257.660156 91.335938 C 254.710938 92.613281 251.4375 93.253906 247.835938 93.253906 C 244.261719 93.253906 240.984375 92.613281 238.011719 91.335938 C 235.0625 90.054688 232.503906 88.214844 230.335938 85.816406 C 228.171875 83.386719 226.488281 80.449219 225.289062 77.007812 C 224.113281 73.5625 223.527344 69.671875 223.527344 65.339844 L 223.527344 62.636719 C 223.527344 58.28125 224.113281 54.390625 225.289062 50.972656 C 226.460938 47.527344 228.121094 44.589844 230.257812 42.164062 C 232.425781 39.734375 234.984375 37.882812 237.933594 36.601562 C 240.90625 35.324219 244.183594 34.683594 247.757812 34.683594 C 251.359375 34.683594 254.632812 35.324219 257.582031 36.601562 C 260.558594 37.882812 263.117188 39.734375 265.253906 42.164062 C 267.421875 44.589844 269.09375 47.527344 270.265625 50.972656 C 271.464844 54.390625 272.066406 58.28125 272.066406 62.636719 Z M 260.207031 65.339844 L 260.207031 62.558594 C 260.207031 59.53125 259.933594 56.871094 259.382812 54.574219 C 258.835938 52.277344 258.027344 50.34375 256.957031 48.777344 C 255.886719 47.210938 254.582031 46.039062 253.042969 45.253906 C 251.503906 44.445312 249.742188 44.042969 247.757812 44.042969 C 245.773438 44.042969 244.011719 44.445312 242.472656 45.253906 C 240.960938 46.039062 239.667969 47.210938 238.597656 48.777344 C 237.554688 50.34375 236.757812 52.277344 236.210938 54.574219 C 235.660156 56.871094 235.386719 59.53125 235.386719 62.558594 L 235.386719 65.339844 C 235.386719 68.339844 235.660156 71.003906 236.210938 73.324219 C 236.757812 75.621094 237.566406 77.566406 238.636719 79.160156 C 239.707031 80.726562 241.011719 81.914062 242.550781 82.722656 C 244.089844 83.53125 245.851562 83.9375 247.835938 83.9375 C 249.820312 83.9375 251.582031 83.53125 253.121094 82.722656 C 254.660156 81.914062 255.953125 80.726562 256.996094 79.160156 C 258.039062 77.566406 258.835938 75.621094 259.382812 73.324219 C 259.933594 71.003906 260.207031 68.339844 260.207031 65.339844 Z M 260.207031 65.339844 "/>
<path style=" stroke:none;fill-rule:nonzero;fill:rgb(0%,43.137255%,16.470588%);fill-opacity:1;" d="M 285.886719 35.46875 L 295.828125 35.46875 L 310.46875 77.320312 L 325.109375 35.46875 L 335.050781 35.46875 L 314.460938 92.46875 L 306.476562 92.46875 Z M 280.523438 35.46875 L 290.425781 35.46875 L 292.226562 76.261719 L 292.226562 92.46875 L 280.523438 92.46875 Z M 330.511719 35.46875 L 340.453125 35.46875 L 340.453125 92.46875 L 328.710938 92.46875 L 328.710938 76.261719 Z M 361.945312 50.109375 L 361.945312 92.46875 L 350.632812 92.46875 L 350.632812 50.109375 Z M 349.925781 39.070312 C 349.925781 37.425781 350.5 36.070312 351.648438 35 C 352.796875 33.929688 354.335938 33.394531 356.269531 33.394531 C 358.175781 33.394531 359.703125 33.929688 360.847656 35 C 362.023438 36.070312 362.609375 37.425781 362.609375 39.070312 C 362.609375 40.714844 362.023438 42.070312 360.847656 43.140625 C 359.703125 44.210938 358.175781 44.746094 356.269531 44.746094 C 354.335938 44.746094 352.796875 44.210938 351.648438 43.140625 C 350.5 42.070312 349.925781 40.714844 349.925781 39.070312 Z M 382.300781 59.152344 L 382.300781 92.46875 L 371.027344 92.46875 L 371.027344 50.109375 L 381.597656 50.109375 Z M 380.65625 69.800781 L 377.601562 69.800781 C 377.601562 66.671875 378.007812 63.851562 378.816406 61.347656 C 379.625 58.816406 380.757812 56.660156 382.222656 54.886719 C 383.683594 53.085938 385.417969 51.714844 387.429688 50.777344 C 389.464844 49.808594 391.734375 49.328125 394.238281 49.328125 C 396.222656 49.328125 398.039062 49.613281 399.679688 50.1875 C 401.324219 50.761719 402.734375 51.675781 403.910156 52.929688 C 405.109375 54.183594 406.023438 55.839844 406.648438 57.902344 C 407.300781 59.964844 407.628906 62.480469 407.628906 65.457031 L 407.628906 92.46875 L 396.277344 92.46875 L 396.277344 65.417969 C 396.277344 63.539062 396.015625 62.078125 395.492188 61.03125 C 394.96875 59.988281 394.199219 59.257812 393.183594 58.839844 C 392.191406 58.398438 390.964844 58.175781 389.503906 58.175781 C 387.988281 58.175781 386.667969 58.476562 385.550781 59.074219 C 384.453125 59.675781 383.542969 60.511719 382.808594 61.582031 C 382.105469 62.625 381.570312 63.851562 381.203125 65.261719 C 380.835938 66.671875 380.65625 68.183594 380.65625 69.800781 Z M 441.214844 83.230469 L 441.214844 32.335938 L 452.566406 32.335938 L 452.566406 92.46875 L 442.351562 92.46875 Z M 414.441406 71.800781 L 414.441406 70.976562 C 414.441406 67.742188 414.804688 64.804688 415.535156 62.167969 C 416.265625 59.507812 417.335938 57.222656 418.746094 55.316406 C 420.15625 53.410156 421.886719 51.9375 423.949219 50.894531 C 426.011719 49.847656 428.363281 49.328125 431 49.328125 C 433.476562 49.328125 435.644531 49.847656 437.496094 50.894531 C 439.375 51.9375 440.964844 53.425781 442.269531 55.355469 C 443.601562 57.261719 444.671875 59.519531 445.480469 62.128906 C 446.292969 64.710938 446.875 67.542969 447.242188 70.625 L 447.242188 72.425781 C 446.875 75.375 446.292969 78.113281 445.480469 80.648438 C 444.671875 83.179688 443.601562 85.398438 442.269531 87.300781 C 440.964844 89.183594 439.375 90.644531 437.496094 91.6875 C 435.613281 92.730469 433.425781 93.253906 430.921875 93.253906 C 428.285156 93.253906 425.933594 92.71875 423.871094 91.648438 C 421.839844 90.578125 420.117188 89.078125 418.707031 87.144531 C 417.324219 85.214844 416.265625 82.945312 415.535156 80.332031 C 414.804688 77.722656 414.441406 74.878906 414.441406 71.800781 Z M 425.710938 70.976562 L 425.710938 71.800781 C 425.710938 73.546875 425.84375 75.179688 426.105469 76.691406 C 426.390625 78.207031 426.847656 79.550781 427.476562 80.726562 C 428.128906 81.875 428.960938 82.773438 429.980469 83.425781 C 431.023438 84.054688 432.289062 84.367188 433.777344 84.367188 C 435.707031 84.367188 437.296875 83.9375 438.550781 83.074219 C 439.804688 82.1875 440.757812 80.972656 441.410156 79.433594 C 442.089844 77.894531 442.480469 76.117188 442.585938 74.109375 L 442.585938 68.980469 C 442.507812 67.335938 442.269531 65.859375 441.878906 64.554688 C 441.515625 63.226562 440.964844 62.089844 440.234375 61.148438 C 439.53125 60.210938 438.644531 59.480469 437.574219 58.957031 C 436.527344 58.4375 435.289062 58.175781 433.855469 58.175781 C 432.394531 58.175781 431.140625 58.515625 430.097656 59.191406 C 429.050781 59.84375 428.207031 60.746094 427.554688 61.894531 C 426.925781 63.042969 426.457031 64.398438 426.144531 65.964844 C 425.855469 67.503906 425.710938 69.175781 425.710938 70.976562 Z M 425.710938 70.976562 "/>
</g>
</svg>
