<?xml version="1.0" encoding="UTF-8"?>
<svg xmlns="http://www.w3.org/2000/svg" xmlns:xlink="http://www.w3.org/1999/xlink" width="478px" height="132px" viewBox="0 0 358 99" version="1.1">
<g id="surface1">
<path style=" stroke:none;fill-rule:nonzero;fill:rgb(12.941176%,12.941176%,12.941176%);fill-opacity:1;" d="M 36.769531 33.910156 L 25.160156 69.351562 L 15.808594 69.351562 L 31.667969 26.601562 L 37.621094 26.601562 Z M 46.414062 69.351562 L 34.777344 33.910156 L 33.835938 26.601562 L 39.847656 26.601562 L 55.796875 69.351562 Z M 45.886719 53.4375 L 45.886719 60.335938 L 23.34375 60.335938 L 23.34375 53.4375 Z M 68.550781 26.601562 L 68.550781 69.351562 L 59.753906 69.351562 L 59.753906 26.601562 Z M 94.117188 26.601562 L 77.199219 47.714844 L 67.433594 58.222656 L 65.851562 49.886719 L 72.449219 40.84375 L 83.328125 26.601562 Z M 84.121094 69.351562 L 71.539062 49.589844 L 78.050781 44.128906 L 94.527344 69.351562 Z M 126.570312 62.480469 L 126.570312 69.351562 L 103.851562 69.351562 L 103.851562 62.480469 Z M 106.722656 26.601562 L 106.722656 69.351562 L 97.925781 69.351562 L 97.925781 26.601562 Z M 123.609375 44.011719 L 123.609375 50.707031 L 103.851562 50.707031 L 103.851562 44.011719 Z M 126.542969 26.601562 L 126.542969 33.5 L 103.851562 33.5 L 103.851562 26.601562 Z M 153.925781 58.167969 C 153.925781 57.402344 153.808594 56.714844 153.574219 56.109375 C 153.355469 55.480469 152.949219 54.917969 152.34375 54.40625 C 151.734375 53.878906 150.886719 53.363281 149.789062 52.851562 C 148.695312 52.339844 147.28125 51.816406 145.539062 51.265625 C 143.605469 50.640625 141.769531 49.933594 140.027344 49.152344 C 138.308594 48.371094 136.785156 47.457031 135.457031 46.421875 C 134.144531 45.363281 133.109375 44.136719 132.34375 42.75 C 131.605469 41.363281 131.234375 39.746094 131.234375 37.902344 C 131.234375 36.121094 131.621094 34.507812 132.402344 33.0625 C 133.1875 31.59375 134.28125 30.339844 135.6875 29.300781 C 137.097656 28.246094 138.757812 27.433594 140.675781 26.863281 C 142.609375 26.296875 144.730469 26.011719 147.035156 26.011719 C 150.183594 26.011719 152.925781 26.582031 155.273438 27.71875 C 157.621094 28.851562 159.4375 30.40625 160.726562 32.386719 C 162.039062 34.363281 162.691406 36.625 162.691406 39.167969 L 153.953125 39.167969 C 153.953125 37.917969 153.691406 36.820312 153.164062 35.878906 C 152.65625 34.917969 151.875 34.167969 150.816406 33.617188 C 149.78125 33.070312 148.472656 32.796875 146.886719 32.796875 C 145.363281 32.796875 144.09375 33.03125 143.078125 33.5 C 142.0625 33.953125 141.296875 34.566406 140.789062 35.347656 C 140.28125 36.113281 140.027344 36.976562 140.027344 37.933594 C 140.027344 38.660156 140.203125 39.316406 140.554688 39.902344 C 140.925781 40.488281 141.472656 41.039062 142.199219 41.546875 C 142.921875 42.054688 143.8125 42.535156 144.863281 42.984375 C 145.921875 43.433594 147.144531 43.875 148.53125 44.304688 C 150.855469 45.011719 152.898438 45.800781 154.660156 46.683594 C 156.4375 47.566406 157.921875 48.554688 159.113281 49.648438 C 160.304688 50.746094 161.207031 51.988281 161.8125 53.378906 C 162.417969 54.769531 162.71875 56.34375 162.71875 58.105469 C 162.71875 59.96875 162.359375 61.632812 161.636719 63.097656 C 160.910156 64.566406 159.867188 65.808594 158.496094 66.824219 C 157.132812 67.847656 155.5 68.621094 153.601562 69.144531 C 151.707031 69.675781 149.585938 69.941406 147.238281 69.941406 C 145.128906 69.941406 143.046875 69.664062 140.996094 69.117188 C 138.941406 68.550781 137.074219 67.699219 135.398438 66.5625 C 133.734375 65.429688 132.402344 63.980469 131.410156 62.21875 C 130.410156 60.457031 129.914062 58.371094 129.914062 55.964844 L 138.738281 55.964844 C 138.738281 57.296875 138.941406 58.421875 139.351562 59.339844 C 139.765625 60.261719 140.339844 61.003906 141.085938 61.570312 C 141.84375 62.136719 142.746094 62.550781 143.78125 62.804688 C 144.835938 63.058594 145.992188 63.1875 147.238281 63.1875 C 148.765625 63.1875 150.015625 62.972656 150.992188 62.539062 C 151.992188 62.109375 152.722656 61.511719 153.191406 60.75 C 153.683594 59.984375 153.925781 59.125 153.925781 58.167969 Z M 203.765625 46.976562 L 203.765625 49.003906 C 203.765625 52.253906 203.328125 55.171875 202.445312 57.753906 C 201.566406 60.335938 200.324219 62.539062 198.722656 64.363281 C 197.121094 66.160156 195.203125 67.542969 192.976562 68.503906 C 190.765625 69.460938 188.316406 69.941406 185.617188 69.941406 C 182.941406 69.941406 180.484375 69.460938 178.261719 68.503906 C 176.050781 67.542969 174.132812 66.160156 172.511719 64.363281 C 170.890625 62.539062 169.628906 60.335938 168.730469 57.753906 C 167.851562 55.171875 167.410156 52.253906 167.410156 49.003906 L 167.410156 46.976562 C 167.410156 43.710938 167.851562 40.792969 168.730469 38.230469 C 169.609375 35.644531 170.851562 33.441406 172.453125 31.621094 C 174.078125 29.800781 175.992188 28.410156 178.203125 27.449219 C 180.425781 26.492188 182.882812 26.011719 185.558594 26.011719 C 188.257812 26.011719 190.707031 26.492188 192.917969 27.449219 C 195.144531 28.410156 197.0625 29.800781 198.664062 31.621094 C 200.285156 33.441406 201.539062 35.644531 202.417969 38.230469 C 203.316406 40.792969 203.765625 43.710938 203.765625 46.976562 Z M 194.882812 49.003906 L 194.882812 46.917969 C 194.882812 44.648438 194.679688 42.652344 194.265625 40.929688 C 193.855469 39.207031 193.25 37.757812 192.449219 36.582031 C 191.648438 35.410156 190.671875 34.527344 189.515625 33.941406 C 188.363281 33.332031 187.046875 33.03125 185.558594 33.03125 C 184.074219 33.03125 182.753906 33.332031 181.601562 33.941406 C 180.46875 34.527344 179.5 35.410156 178.699219 36.582031 C 177.917969 37.757812 177.320312 39.207031 176.910156 40.929688 C 176.5 42.652344 176.292969 44.648438 176.292969 46.917969 L 176.292969 49.003906 C 176.292969 51.253906 176.5 53.253906 176.910156 54.992188 C 177.320312 56.714844 177.925781 58.175781 178.726562 59.371094 C 179.53125 60.542969 180.507812 61.433594 181.660156 62.042969 C 182.8125 62.648438 184.132812 62.953125 185.617188 62.953125 C 187.105469 62.953125 188.421875 62.648438 189.574219 62.042969 C 190.730469 61.433594 191.695312 60.542969 192.476562 59.371094 C 193.257812 58.175781 193.855469 56.714844 194.265625 54.992188 C 194.679688 53.253906 194.882812 51.253906 194.882812 49.003906 Z M 194.882812 49.003906 "/>
<path style=" stroke:none;fill-rule:nonzero;fill:rgb(0%,43.137255%,16.470588%);fill-opacity:1;" d="M 214.117188 26.601562 L 221.5625 26.601562 L 232.527344 57.988281 L 243.492188 26.601562 L 250.9375 26.601562 L 235.515625 69.351562 L 229.535156 69.351562 Z M 210.097656 26.601562 L 217.515625 26.601562 L 218.863281 57.195312 L 218.863281 69.351562 L 210.097656 69.351562 Z M 247.539062 26.601562 L 254.984375 26.601562 L 254.984375 69.351562 L 246.1875 69.351562 L 246.1875 57.195312 Z M 271.082031 37.582031 L 271.082031 69.351562 L 262.609375 69.351562 L 262.609375 37.582031 Z M 262.078125 29.300781 C 262.078125 28.070312 262.507812 27.050781 263.367188 26.25 C 264.230469 25.449219 265.382812 25.046875 266.828125 25.046875 C 268.257812 25.046875 269.402344 25.449219 270.257812 26.25 C 271.140625 27.050781 271.578125 28.070312 271.578125 29.300781 C 271.578125 30.535156 271.140625 31.550781 270.257812 32.355469 C 269.402344 33.160156 268.257812 33.558594 266.828125 33.558594 C 265.382812 33.558594 264.230469 33.160156 263.367188 32.355469 C 262.507812 31.550781 262.078125 30.535156 262.078125 29.300781 Z M 286.324219 44.363281 L 286.324219 69.351562 L 277.882812 69.351562 L 277.882812 37.582031 L 285.800781 37.582031 Z M 285.09375 52.351562 L 282.804688 52.351562 C 282.804688 50.003906 283.109375 47.886719 283.714844 46.011719 C 284.320312 44.113281 285.171875 42.496094 286.265625 41.164062 C 287.363281 39.816406 288.660156 38.785156 290.167969 38.082031 C 291.691406 37.355469 293.390625 36.996094 295.265625 36.996094 C 296.753906 36.996094 298.113281 37.210938 299.339844 37.640625 C 300.574219 38.070312 301.628906 38.757812 302.511719 39.699219 C 303.410156 40.636719 304.09375 41.878906 304.5625 43.425781 C 305.050781 44.972656 305.296875 46.859375 305.296875 49.09375 L 305.296875 69.351562 L 296.792969 69.351562 L 296.792969 49.0625 C 296.792969 47.652344 296.597656 46.558594 296.207031 45.773438 C 295.8125 44.992188 295.238281 44.441406 294.476562 44.128906 C 293.734375 43.800781 292.816406 43.632812 291.71875 43.632812 C 290.585938 43.632812 289.597656 43.855469 288.761719 44.304688 C 287.9375 44.757812 287.257812 45.382812 286.707031 46.1875 C 286.179688 46.96875 285.777344 47.886719 285.503906 48.945312 C 285.230469 50.003906 285.09375 51.136719 285.09375 52.351562 Z M 330.449219 62.421875 L 330.449219 24.253906 L 338.953125 24.253906 L 338.953125 69.351562 L 331.300781 69.351562 Z M 310.398438 53.851562 L 310.398438 53.230469 C 310.398438 50.808594 310.667969 48.605469 311.214844 46.625 C 311.765625 44.628906 312.566406 42.917969 313.621094 41.488281 C 314.675781 40.058594 315.972656 38.953125 317.519531 38.171875 C 319.0625 37.386719 320.824219 36.996094 322.800781 36.996094 C 324.652344 36.996094 326.277344 37.386719 327.664062 38.171875 C 329.070312 38.953125 330.261719 40.070312 331.238281 41.515625 C 332.238281 42.945312 333.039062 44.640625 333.644531 46.597656 C 334.253906 48.535156 334.6875 50.65625 334.964844 52.96875 L 334.964844 54.320312 C 334.6875 56.53125 334.253906 58.585938 333.644531 60.488281 C 333.039062 62.386719 332.238281 64.050781 331.238281 65.476562 C 330.261719 66.886719 329.070312 67.984375 327.664062 68.765625 C 326.253906 69.546875 324.617188 69.941406 322.742188 69.941406 C 320.765625 69.941406 319.003906 69.539062 317.460938 68.738281 C 315.9375 67.933594 314.648438 66.808594 313.59375 65.359375 C 312.554688 63.910156 311.765625 62.207031 311.214844 60.25 C 310.667969 58.292969 310.398438 56.160156 310.398438 53.851562 Z M 318.839844 53.230469 L 318.839844 53.851562 C 318.839844 55.160156 318.9375 56.386719 319.132812 57.519531 C 319.347656 58.65625 319.6875 59.664062 320.160156 60.542969 C 320.648438 61.40625 321.273438 62.082031 322.035156 62.570312 C 322.816406 63.042969 323.765625 63.277344 324.878906 63.277344 C 326.324219 63.277344 327.515625 62.953125 328.453125 62.304688 C 329.394531 61.640625 330.105469 60.730469 330.597656 59.574219 C 331.105469 58.421875 331.398438 57.089844 331.476562 55.582031 L 331.476562 51.734375 C 331.417969 50.503906 331.238281 49.394531 330.945312 48.417969 C 330.675781 47.417969 330.261719 46.566406 329.714844 45.863281 C 329.1875 45.160156 328.523438 44.609375 327.722656 44.21875 C 326.9375 43.828125 326.011719 43.632812 324.9375 43.632812 C 323.84375 43.632812 322.90625 43.886719 322.125 44.394531 C 321.339844 44.882812 320.707031 45.558594 320.21875 46.421875 C 319.746094 47.28125 319.398438 48.300781 319.164062 49.472656 C 318.945312 50.628906 318.839844 51.882812 318.839844 53.230469 Z M 318.839844 53.230469 "/>
</g>
</svg>
