<?xml version="1.0" encoding="UTF-8"?> <svg xmlns="http://www.w3.org/2000/svg" xmlns:xlink="http://www.w3.org/1999/xlink" version="1.0" id="katman_1" x="0px" y="0px" viewBox="0 0 800 600" style="enable-background:new 0 0 800 600;" xml:space="preserve"> <style type="text/css"> .st0{fill:#FF6600;} .st1{fill:#FFCC00;} .st2{fill:#0089CC;} .st3{fill:#009939;} .st4{fill:#BF0000;} .st5{fill:#FC0007;} .st6{fill:#1CD306;} .st7{fill:#0F7504;} .st8{fill:#0C5E87;} .st9{fill:#6B0001;} .st10{fill:#FFFFFF;} </style> <circle class="st0" cx="388.9" cy="328.2" r="24.4"></circle> <path d="M148.5,331.4l-14.9-55.2l-15.1,55.2c-1.2,4.2-2.1,7.2-2.8,9c-0.7,1.8-1.9,3.4-3.6,4.9c-1.7,1.4-4,2.2-6.8,2.2 c-2.3,0-4.2-0.4-5.7-1.3c-1.5-0.8-2.7-2.1-3.6-3.7c-0.9-1.6-1.7-3.4-2.2-5.6c-0.6-2.2-1.1-4.1-1.6-6l-15.3-62 c-0.9-3.6-1.4-6.3-1.4-8.2c0-2.4,0.8-4.4,2.5-6c1.7-1.6,3.7-2.5,6.2-2.5c3.4,0,5.7,1.1,6.8,3.3s2.2,5.3,3.1,9.5l12.1,53.8l13.5-50.3 c1-3.9,1.9-6.8,2.7-8.8s2.1-3.7,3.9-5.2c1.8-1.5,4.3-2.2,7.4-2.2c3.2,0,5.6,0.8,7.3,2.3c1.7,1.5,3,3.2,3.6,5 c0.7,1.8,1.6,4.8,2.7,8.9l13.6,50.3l12.1-53.8c0.6-2.8,1.1-5,1.7-6.6c0.5-1.6,1.4-3,2.7-4.3c1.3-1.3,3.1-1.9,5.5-1.9 c2.4,0,4.5,0.8,6.2,2.4c1.7,1.6,2.5,3.6,2.5,6.1c0,1.7-0.5,4.5-1.4,8.2l-15.3,62c-1.1,4.2-1.9,7.2-2.6,9.2c-0.7,2-1.9,3.7-3.5,5.1 c-1.7,1.5-4,2.2-7,2.2c-2.9,0-5.1-0.7-6.8-2.1c-1.7-1.4-2.9-3-3.6-4.8C150.7,338.8,149.7,335.7,148.5,331.4z M245.3,316.9h-33.5 c0,3.9,0.8,7.3,2.4,10.3c1.5,3,3.6,5.2,6.1,6.7c2.5,1.5,5.3,2.2,8.4,2.2c2,0,3.9-0.2,5.6-0.7c1.7-0.5,3.3-1.2,4.9-2.2 c1.6-1,3.1-2.1,4.4-3.3s3.1-2.8,5.2-4.8c0.9-0.8,2.1-1.1,3.8-1.1c1.8,0,3.2,0.5,4.3,1.4c1.1,1,1.6,2.3,1.6,4.1 c0,1.5-0.6,3.4-1.8,5.4c-1.2,2.1-3,4.1-5.5,6c-2.5,1.9-5.5,3.5-9.2,4.7c-3.7,1.3-8,1.9-12.8,1.9c-11,0-19.6-3.2-25.7-9.4 c-6.1-6.3-9.2-14.8-9.2-25.6c0-5.1,0.8-9.8,2.2-14.1c1.5-4.3,3.7-8.1,6.6-11.2s6.5-5.5,10.7-7.1c4.2-1.7,8.9-2.5,14.1-2.5 c6.7,0,12.4,1.4,17.2,4.2c4.8,2.8,8.4,6.5,10.8,11c2.4,4.5,3.6,9.1,3.6,13.7c0,4.3-1.2,7.1-3.7,8.4 C253.3,316.2,249.8,316.9,245.3,316.9z M211.8,307.1h31.1c-0.4-5.9-2-10.3-4.7-13.2c-2.7-2.9-6.4-4.4-10.8-4.4 c-4.3,0-7.8,1.5-10.5,4.4C214,297,212.4,301.3,211.8,307.1z M286.9,262.1v26.2c3.2-3.4,6.5-5.9,9.9-7.7c3.4-1.8,7.5-2.7,12.4-2.7 c5.7,0,10.7,1.3,15,4.1c4.3,2.7,7.6,6.6,10,11.7c2.4,5.1,3.6,11.2,3.6,18.3c0,5.2-0.7,10-2,14.3c-1.3,4.3-3.2,8.1-5.8,11.3 c-2.5,3.2-5.5,5.6-9.1,7.4c-3.6,1.8-7.5,2.6-11.8,2.6c-2.6,0-5.1-0.3-7.4-0.9c-2.3-0.6-4.3-1.5-5.9-2.5s-3-2.1-4.2-3.2 c-1.1-1.1-2.7-2.7-4.6-4.9v1.7c0,3.2-0.8,5.7-2.3,7.3c-1.5,1.7-3.5,2.5-5.9,2.5c-2.4,0-4.4-0.8-5.8-2.5c-1.4-1.7-2.2-4.1-2.2-7.3 v-74.9c0-3.5,0.7-6.1,2.1-7.9c1.4-1.8,3.4-2.7,5.9-2.7c2.6,0,4.7,0.8,6.1,2.5C286.2,256.5,286.9,258.9,286.9,262.1z M287.8,313 c0,6.8,1.5,12.1,4.7,15.7c3.1,3.7,7.2,5.5,12.3,5.5c4.3,0,8-1.9,11.2-5.6c3.1-3.7,4.7-9.1,4.7-16.1c0-4.5-0.6-8.4-2-11.7 c-1.3-3.3-3.2-5.8-5.5-7.6c-2.4-1.8-5.2-2.7-8.4-2.7c-3.3,0-6.2,0.9-8.7,2.7c-2.5,1.8-4.6,4.4-6,7.7 C288.5,304.4,287.8,308.4,287.8,313z"></path> <path d="M506.4,306.5h-6.5v29.6c0,3.9-0.8,6.8-2.6,8.6c-1.7,1.8-3.9,2.8-6.7,2.8c-3,0-5.3-1-6.9-2.9c-1.6-1.9-2.5-4.8-2.5-8.5v-70.9 c0-4,0.9-6.9,2.7-8.7c1.8-1.8,4.7-2.7,8.7-2.7H523c4.2,0,7.8,0.2,10.7,0.5c3,0.4,5.7,1.1,8,2.2c2.9,1.2,5.4,3,7.7,5.2 c2.2,2.2,3.9,4.9,5.1,7.9c1.1,3,1.7,6.2,1.7,9.5c0,6.9-1.9,12.4-5.8,16.4c-3.9,4.1-9.8,7-17.6,8.7c3.3,1.8,6.5,4.4,9.5,7.8 c3,3.4,5.7,7.1,8.1,11c2.4,3.9,4.2,7.4,5.5,10.5c1.3,3.1,2,5.3,2,6.4c0,1.2-0.4,2.4-1.2,3.6c-0.8,1.2-1.8,2.1-3.2,2.8 c-1.3,0.7-2.9,1-4.6,1c-2.1,0-3.9-0.5-5.3-1.5c-1.4-1-2.7-2.2-3.7-3.7s-2.4-3.7-4.2-6.7l-7.5-12.4c-2.7-4.6-5.1-8-7.2-10.4 c-2.1-2.4-4.3-4-6.4-4.9C512.5,307,509.7,306.5,506.4,306.5z M517.1,267.8h-17.2v25.3h16.7c4.5,0,8.2-0.4,11.3-1.2s5.4-2.1,7-3.9 c1.6-1.9,2.4-4.4,2.4-7.7c0-2.5-0.6-4.8-2-6.7c-1.3-2-3.1-3.4-5.4-4.4C527.8,268.3,523.5,267.8,517.1,267.8z M631,269.2h-20.4v66.9 c0,3.9-0.8,6.7-2.6,8.6c-1.7,1.9-3.9,2.8-6.7,2.8c-2.8,0-5-0.9-6.7-2.8c-1.8-1.9-2.6-4.7-2.6-8.5v-66.9h-20.4 c-3.2,0-5.5-0.7-7.1-2.1c-1.5-1.4-2.3-3.2-2.3-5.5c0-2.4,0.8-4.3,2.4-5.7c1.6-1.4,3.9-2.1,7-2.1H631c3.2,0,5.6,0.7,7.2,2.1 s2.4,3.3,2.4,5.6c0,2.3-0.8,4.1-2.4,5.5C636.6,268.5,634.2,269.2,631,269.2z M724,316.9c0,2.9-0.7,6.1-2.2,9.5 c-1.4,3.4-3.7,6.8-6.8,10c-3.1,3.3-7.1,6-11.9,8c-4.8,2-10.4,3.1-16.8,3.1c-4.8,0-9.3-0.5-13.3-1.4s-7.6-2.4-10.8-4.3 c-3.2-2-6.2-4.5-8.9-7.7c-2.4-2.9-4.5-6.1-6.2-9.7c-1.7-3.6-3-7.4-3.9-11.5c-0.8-4.1-1.3-8.4-1.3-12.9c0-7.4,1.1-14,3.2-19.9 c2.2-5.9,5.3-10.9,9.3-15c4-4.2,8.7-7.3,14.1-9.5c5.4-2.2,11.2-3.3,17.3-3.3c7.4,0,14.1,1.5,19.9,4.5c5.8,3,10.3,6.7,13.4,11 c3.1,4.4,4.6,8.5,4.6,12.4c0,2.1-0.8,4-2.2,5.7c-1.5,1.6-3.3,2.5-5.5,2.5c-2.4,0-4.2-0.6-5.4-1.7c-1.2-1.1-2.5-3.1-4-5.8 c-2.4-4.6-5.3-8-8.6-10.3c-3.3-2.2-7.3-3.4-12.2-3.4c-7.7,0-13.8,2.9-18.3,8.7s-6.8,14.1-6.8,24.8c0,7.2,1,13.1,3,17.9 c2,4.8,4.8,8.3,8.5,10.7c3.7,2.3,8,3.5,12.9,3.5c5.4,0,9.9-1.3,13.6-4c3.7-2.7,6.5-6.6,8.4-11.7c0.8-2.4,1.8-4.4,3-5.9 c1.2-1.5,3.1-2.3,5.7-2.3c2.2,0,4.1,0.8,5.7,2.3C723.2,312.6,724,314.5,724,316.9z"></path> <circle class="st1" cx="437.1" cy="294" r="24.4"></circle> <circle class="st2" cx="377.5" cy="293.5" r="24.4"></circle> <ellipse transform="matrix(0.1602 -0.9871 0.9871 0.1602 34.0876 696.3835)" class="st3" cx="426.3" cy="328.2" rx="24.4" ry="24.4"></ellipse> <circle class="st4" cx="407.3" cy="271.8" r="24.4"></circle> <path class="st5" d="M412.8,294c0,0.5,0.1,1,0.1,1.5c10.8-2.5,18.9-12.2,18.9-23.7c0-0.5-0.1-1-0.1-1.5 C420.8,272.8,412.8,282.5,412.8,294z"></path> <path class="st6" d="M416,306.1c4.2,7.3,12.1,12.3,21.1,12.3c3.7,0,7.2-0.8,10.3-2.3c-4.2-7.3-12.1-12.3-21.1-12.3 C422.6,303.8,419.1,304.6,416,306.1z"></path> <path class="st7" d="M401.9,328.2c0,6,2.1,11.4,5.7,15.6c3.5-4.2,5.7-9.7,5.7-15.6c0-6-2.1-11.4-5.7-15.6 C404.1,316.8,401.9,322.2,401.9,328.2z"></path> <path class="st8" d="M367.9,315.9c3,1.3,6.2,2,9.6,2c9,0,16.8-4.9,21-12.1c-3-1.3-6.2-2-9.6-2C379.9,303.8,372.1,308.6,367.9,315.9z "></path> <path class="st9" d="M383.1,269.8c-0.1,0.7-0.1,1.4-0.1,2c0,11.6,8.1,21.2,18.9,23.7c0.1-0.7,0.1-1.4,0.1-2 C401.9,281.9,393.9,272.3,383.1,269.8z"></path> <path class="st10" d="M385.3,325.2h-3.8c-3.4,0-6.1-2.7-6.1-6.1v-34.5c0-3.4,2.7-6.1,6.1-6.1h47.8c3.4,0,6.1,2.7,6.1,6.1V319 c0,3.4-2.7,6.1-6.1,6.1H413l-32.7,16L385.3,325.2z"></path> </svg> 