<svg width="321" height="45" viewBox="0 0 321 45" fill="none" xmlns="http://www.w3.org/2000/svg">
<path fill-rule="evenodd" clip-rule="evenodd" d="M211.954 32.2557C212.228 33.3013 212.57 34.3041 212.979 35.2643C214.216 38.1616 216.106 40.4406 218.65 42.1013C221.23 43.7266 224.445 44.5393 228.296 44.5393C230.84 44.5393 233.119 44.1683 235.133 43.4263C237.183 42.6489 238.914 41.5536 240.327 40.1403C241.741 38.6916 242.748 36.9603 243.348 34.9463H239.161C238.702 36.2536 237.942 37.3666 236.882 38.2853C235.822 39.2039 234.568 39.9106 233.119 40.4053C231.671 40.8646 230.098 41.0943 228.402 41.0943C225.328 41.0943 222.802 40.3876 220.823 38.9743C218.845 37.5256 217.378 35.5999 216.424 33.1973C215.47 30.7946 214.993 28.1446 214.993 25.2473C214.993 25.1733 214.994 25.0994 214.994 25.0257C214.635 25.2808 214.441 25.5505 214.343 25.8926C213.841 27.6513 213.171 29.8795 211.954 32.2557ZM217.143 15.9386C218.049 14.3063 219.24 12.9396 220.717 11.8383C222.696 10.3896 225.258 9.66527 228.402 9.66527C230.982 9.66527 233.172 10.2129 234.974 11.3083C236.812 12.3683 238.084 13.8699 238.79 15.8133H242.659C242.129 13.7993 241.211 12.0856 239.903 10.6723C238.631 9.22361 237.024 8.12828 235.08 7.38628C233.172 6.60894 230.946 6.22028 228.402 6.22028C224.551 6.22028 221.336 7.06827 218.756 8.76427C216.553 10.2029 214.826 12.1056 213.577 14.4723C214.96 14.8747 216.167 15.4054 217.143 15.9386ZM250.405 44.1153V6.64428H264.291C266.341 6.64428 268.178 6.85628 269.803 7.28028C271.429 7.66895 272.824 8.32261 273.99 9.24128C275.156 10.1599 276.04 11.3613 276.64 12.8453C277.276 14.2939 277.594 16.0783 277.594 18.1983C277.594 20.2123 277.206 21.9613 276.428 23.4453C275.686 24.8939 274.662 26.0776 273.354 26.9963C272.082 27.9149 270.598 28.6039 268.902 29.0633L276.958 44.1153H272.718L265.033 29.6993H254.221V44.1153H250.405ZM254.221 26.2543H262.807C264.256 26.2543 265.616 26.1483 266.888 25.9363C268.196 25.6889 269.344 25.2826 270.333 24.7173C271.358 24.1166 272.153 23.2863 272.718 22.2263C273.319 21.1309 273.637 19.7353 273.672 18.0393C273.672 16.0253 273.266 14.4529 272.453 13.3223C271.676 12.1563 270.545 11.3259 269.061 10.8313C267.577 10.3366 265.828 10.0893 263.814 10.0893H254.221V26.2543ZM285.238 44.1153V6.64428H290.962L303.205 28.3743L315.183 6.64428H320.801V44.1153H316.985V10.7783L304 34.1513H302.198L289.054 10.7783V44.1153H285.238Z" fill="white"/>
<path fill-rule="evenodd" clip-rule="evenodd" d="M168.357 6.97086C168.54 8.10792 168.879 9.34247 169.321 10.5673C168.611 10.7859 167.688 11.263 167.011 12.2668C166.235 13.4174 166.226 14.6049 166.325 15.3122C166.651 17.6389 167.974 19.6161 169.587 21.267V44.1153H162.167V6.59131H168.302C168.319 6.72242 168.338 6.84917 168.357 6.97086ZM0.500488 6.59131V44.1153H8.07949V16.7143L18.8915 35.7413H21.9655L32.6185 16.7143V44.1153H40.1975V6.59131H30.4985L20.5875 24.7173L10.5705 6.59131H0.500488ZM137.185 44.0093C138.386 44.3273 139.623 44.4863 140.895 44.4863C141.531 44.4863 142.361 44.4156 143.386 44.2743C144.411 44.133 145.471 43.7796 146.566 43.2143C147.697 42.649 148.704 41.748 149.587 40.5113L149.693 44.1153H156.371V29.0633C156.371 24.8233 155.399 21.555 153.456 19.2583C151.513 16.9263 148.509 15.7603 144.446 15.7603C142.962 15.7603 141.513 15.937 140.1 16.2903C138.722 16.6083 137.45 17.1206 136.284 17.8273C135.118 18.534 134.146 19.4526 133.369 20.5833C132.592 21.6786 132.097 23.0036 131.885 24.5583H139.411C139.552 23.993 139.853 23.5336 140.312 23.1803C140.771 22.827 141.337 22.562 142.008 22.3853C142.715 22.1733 143.439 22.0673 144.181 22.0673C145.347 22.0673 146.301 22.297 147.043 22.7563C147.785 23.1803 148.333 23.7986 148.686 24.6113C149.075 25.3886 149.269 26.2896 149.269 27.3143H145.241C143.404 27.3143 141.619 27.4203 139.888 27.6323C138.192 27.8443 136.69 28.2506 135.383 28.8513C134.076 29.452 133.033 30.3353 132.256 31.5013C131.479 32.632 131.09 34.1513 131.09 36.0593C131.09 37.4726 131.355 38.7093 131.885 39.7693C132.415 40.8293 133.139 41.7126 134.058 42.4193C134.977 43.126 136.019 43.656 137.185 44.0093ZM145.983 37.8613C144.958 38.356 143.828 38.6033 142.591 38.6033C141.849 38.6033 141.16 38.4973 140.524 38.2853C139.888 38.038 139.376 37.6846 138.987 37.2253C138.634 36.7306 138.457 36.13 138.457 35.4233C138.457 34.7166 138.616 34.1513 138.934 33.7273C139.252 33.3033 139.676 33.003 140.206 32.8263C140.771 32.6143 141.39 32.473 142.061 32.4023C142.768 32.3316 143.492 32.2963 144.234 32.2963H149.322V32.9853C149.322 34.0453 149.022 34.9993 148.421 35.8473C147.82 36.6953 147.008 37.3666 145.983 37.8613ZM121.08 44.4863C117.935 44.4863 115.603 43.603 114.084 41.8363C112.6 40.0696 111.858 37.6493 111.858 34.5753V22.8093H107.671V16.1843H111.858V8.65831H119.278V16.1843H127.758V22.8093H119.278V33.0383C119.278 33.957 119.384 34.752 119.596 35.4233C119.843 36.0946 120.232 36.6246 120.762 37.0133C121.327 37.3666 122.087 37.5433 123.041 37.5433C123.889 37.5433 124.595 37.4196 125.161 37.1723C125.761 36.8896 126.256 36.5893 126.645 36.2713L128.977 41.9953C128.235 42.596 127.404 43.0906 126.486 43.4793C125.602 43.8326 124.701 44.08 123.783 44.2213C122.864 44.398 121.963 44.4863 121.08 44.4863ZM77.5948 16.1843V44.1153H85.0148V30.3353C85.0148 28.8866 85.2444 27.5616 85.7038 26.3603C86.1631 25.159 86.8698 24.205 87.8238 23.4983C88.7778 22.7916 89.9614 22.4383 91.3748 22.4383C92.4701 22.4383 93.3534 22.6503 94.0248 23.0743C94.6961 23.4983 95.2084 24.0636 95.5618 24.7703C95.9504 25.477 96.2154 26.2543 96.3568 27.1023C96.4981 27.9503 96.5688 28.7983 96.5688 29.6463V44.1153H103.989V28.6923C103.989 26.2896 103.653 24.1166 102.982 22.1733C102.346 20.1946 101.268 18.6223 99.7488 17.4563C98.2648 16.2903 96.1801 15.7073 93.4948 15.7073C92.6468 15.7073 91.6928 15.8133 90.6328 16.0253C89.6081 16.2373 88.5834 16.626 87.5588 17.1913C86.5694 17.7213 85.6861 18.4633 84.9088 19.4173L84.5378 16.1843H77.5948ZM59.8824 44.4863C56.9497 44.4863 54.4587 43.9033 52.4094 42.7373C50.3601 41.5713 48.7877 39.9283 47.6924 37.8083C46.5971 35.653 46.0494 33.1443 46.0494 30.2823C46.0494 27.385 46.6147 24.8586 47.7454 22.7033C48.8761 20.5126 50.4661 18.799 52.5154 17.5623C54.6001 16.3256 57.0557 15.7073 59.8824 15.7073C62.0024 15.7073 63.8574 16.0606 65.4474 16.7673C67.0727 17.474 68.4331 18.4633 69.5284 19.7353C70.6591 21.0073 71.4894 22.4913 72.0194 24.1873C72.5847 25.848 72.8497 27.65 72.8144 29.5933C72.8144 30.088 72.7967 30.565 72.7614 31.0243C72.7261 31.4836 72.6554 31.943 72.5494 32.4023H53.4164C53.5224 33.4623 53.8227 34.434 54.3174 35.3173C54.8121 36.2006 55.5011 36.9073 56.3844 37.4373C57.3031 37.932 58.4337 38.1793 59.7764 38.1793C60.6597 38.1793 61.4724 38.091 62.2144 37.9143C62.9564 37.7023 63.5924 37.3843 64.1224 36.9603C64.6524 36.5363 65.0234 36.0416 65.2354 35.4763H72.5494C72.0901 37.561 71.2244 39.2746 69.9524 40.6173C68.7157 41.96 67.2141 42.9493 65.4474 43.5853C63.6807 44.186 61.8257 44.4863 59.8824 44.4863ZM53.5754 27.2083H65.7124C65.6771 26.2543 65.4297 25.371 64.9704 24.5583C64.5464 23.7103 63.8927 23.039 63.0094 22.5443C62.1614 22.0143 61.0661 21.7493 59.7234 21.7493C58.3807 21.7493 57.2501 22.0143 56.3314 22.5443C55.4481 23.0743 54.7767 23.7633 54.3174 24.6113C53.8934 25.424 53.6461 26.2896 53.5754 27.2083Z" fill="white"/>
<path d="M183.774 15.8865C177.242 11.004 174 3.45567 173.085 3.54831C171.4 3.71905 172.338 8.10256 174.155 11.6901C175.268 13.8857 177.401 15.7317 177.44 16.2823C177.543 17.7328 170.042 13.0147 170.286 14.7577C170.53 16.5006 171.989 18.3067 174.399 20.1956C176.579 21.9032 179.988 23.4137 179.872 23.672C179.507 24.4831 175.624 23.1948 174.399 23.672C173.175 24.1492 176.239 26.6147 179.477 28.0241C181.538 28.9209 184.494 28.6177 184.494 28.8184C184.494 29.5541 183.711 30.5597 181.591 31.0841C180.436 31.3697 183.824 33.0784 187.183 32.8657C189.952 32.6903 191.641 32.1104 192.73 31.5258C189.285 36.9249 183.63 41.3015 180.416 43.3494C180.13 43.5317 180.257 44.0336 180.596 44.0524C183.568 44.2179 190.169 44.4037 198.951 39.705C207.339 35.2172 209.31 28.9504 210.497 24.7937C211.305 21.9647 213.986 20.8134 215.783 20.4786C216.081 20.4231 216.192 20.0367 215.938 19.8721C214.015 18.6262 210.16 17.066 205.813 18.1298C202.379 18.97 200.239 20.599 198.196 23.1849C198.107 23.298 197.956 23.343 197.821 23.2926C194.531 22.0651 188.436 19.3715 183.774 15.8865Z" fill="url(#paint0_linear_19_3128)"/>
<path d="M196.479 11.6372C191.283 6.7511 189.027 0.507687 188.223 0.498167C186.742 0.48062 187.125 4.38227 188.351 7.67892C189.102 9.69646 190.774 11.5107 190.754 11.9931C190.7 13.2636 184.646 8.42504 184.687 9.9637C184.781 13.5396 195.059 20.7496 197.182 20.3063C197.3 20.2816 197.397 20.1992 197.482 20.1139C200.295 17.3056 201.291 17.3952 201.432 16.7266C201.641 15.7339 199.235 14.2291 196.479 11.6372Z" fill="url(#paint1_linear_19_3128)"/>
<defs>
<linearGradient id="paint0_linear_19_3128" x1="212.654" y1="5.08075" x2="171.56" y2="17.07" gradientUnits="userSpaceOnUse">
<stop stop-color="#57F5D9"/>
<stop offset="1" stop-color="#109D5A"/>
</linearGradient>
<linearGradient id="paint1_linear_19_3128" x1="212.654" y1="5.08075" x2="171.56" y2="17.07" gradientUnits="userSpaceOnUse">
<stop stop-color="#57F5D9"/>
<stop offset="1" stop-color="#109D5A"/>
</linearGradient>
</defs>
</svg>
